<svg xmlns="http://www.w3.org/2000/svg" width="32" height="32" viewBox="0 0 32 32">
  <defs>
    <linearGradient id="thunderGradient" x1="0%" y1="0%" x2="100%" y2="100%">
      <stop offset="0%" stop-color="#FBBF24"/>
      <stop offset="100%" stop-color="#D97706"/>
    </linearGradient>
  </defs>
  <rect width="32" height="32" rx="8" fill="#1C1917"/>
  <path fill="url(#thunderGradient)" d="M18.5 29.5c-.44.56-1.34.25-1.34-.46v-6.92a1.5 1.5 0 0 0-1.5-1.5H8.5c-.61 0-.97-.69-.61-1.19l4.98-6.98c.71-1 .01-2.38-1.22-2.38H5.5c-.61 0-.97-.69-.61-1.19l6.44-9.03a1.07 1.07 0 0 1 .87-.44h19.2c.61 0 .97.69.61 1.19l-4.98 6.98c-.71 1-.01 2.38 1.22 2.38h7.58c.63 0 .98.72.59 1.22l-14.02 18.22z"/>
</svg>
